<?xml version="1.0" encoding="UTF-8" standalone="no"?>
<svg
   xmlns:dc="http://purl.org/dc/elements/1.1/"
   xmlns:cc="http://creativecommons.org/ns#"
   xmlns:rdf="http://www.w3.org/1999/02/22-rdf-syntax-ns#"
   xmlns:svg="http://www.w3.org/2000/svg"
   xmlns="http://www.w3.org/2000/svg"
   xmlns:sodipodi="http://sodipodi.sourceforge.net/DTD/sodipodi-0.dtd"
   xmlns:inkscape="http://www.inkscape.org/namespaces/inkscape"
   width="70"
   height="70"
   viewBox="0 0 18.520835 18.520835"
   version="1.1"
   id="svg33937"
   inkscape:version="1.0.1 (3bc2e813f5, 2020-09-07)"
   sodipodi:docname="drawing.svg">
  <defs
     id="defs33931" />
  <sodipodi:namedview
     id="base"
     pagecolor="#ffffff"
     bordercolor="#666666"
     borderopacity="1.0"
     inkscape:pageopacity="0.0"
     inkscape:pageshadow="2"
     inkscape:zoom="3.959798"
     inkscape:cx="32.168036"
     inkscape:cy="47.064449"
     inkscape:document-units="px"
     inkscape:current-layer="layer1"
     inkscape:document-rotation="0"
     showgrid="false"
     units="px"
     inkscape:window-width="1431"
     inkscape:window-height="1030"
     inkscape:window-x="160"
     inkscape:window-y="0"
     inkscape:window-maximized="0" />
  <metadata
     id="metadata33934">
    <rdf:RDF>
      <cc:Work
         rdf:about="">
        <dc:format>image/svg+xml</dc:format>
        <dc:type
           rdf:resource="http://purl.org/dc/dcmitype/StillImage" />
        <dc:title></dc:title>
      </cc:Work>
    </rdf:RDF>
  </metadata>
  <g
     inkscape:label="Layer 1"
     inkscape:groupmode="layer"
     id="layer1">
    <g
       id="Layer1016"
       transform="matrix(3.0867544,0,0,3.0867544,-925.8229,-92.598928)">
      <path
         d="m 305.9342,35.9989 h -6.0001 c 0,-2.0002 0,-3.9999 0,-6.0001 h 6.0001 c 0,2.0002 0,3.9999 0,6.0001 z"
         style="fill:#913718;fill-rule:evenodd"
         id="path1544" />
      <path
         d="m 302.9342,29.9988 c 0,0.4434 0.197,0.8864 0.5916,1.1966 0.6492,0.5106 1.6008,0.5239 1.7989,1.1183 0.2031,-0.3685 0.5874,-1.2288 -0.5736,-1.684 0.3822,-0.0119 0.946,-0.2373 1.1831,-0.6309 z"
         style="fill:#ebb223;fill-rule:evenodd"
         id="path1546" />
      <path
         d="m 303.1549,29.9988 c 0,0.3842 0.1692,0.7685 0.5087,1.0353 0.4434,0.3488 1.2017,0.4691 1.6184,0.845 0.2669,-0.8376 -0.6518,-1.0753 -1.2593,-1.3816 0.571,-0.0607 1.2459,-0.043 1.6461,-0.4987 z"
         style="fill:#f09a1f;fill-rule:evenodd"
         id="path1548" />
      <path
         d="m 305.9342,35.9989 c -0.2371,-0.3937 -0.8009,-0.6191 -1.1831,-0.6309 1.161,-0.4553 0.7767,-1.3156 0.5736,-1.684 -0.1981,0.5943 -1.1497,0.6077 -1.7989,1.1182 -0.3946,0.3103 -0.5916,0.7532 -0.5916,1.1967 z"
         style="fill:#ebb223;fill-rule:evenodd"
         id="path1550" />
      <path
         d="m 305.282,34.1185 c -0.4167,0.3759 -1.175,0.4963 -1.6184,0.845 -0.3395,0.2673 -0.5087,0.6511 -0.5087,1.0354 h 2.5139 c -0.4002,-0.4558 -1.0751,-0.4381 -1.6461,-0.4987 0.6075,-0.3064 1.5262,-0.5441 1.2593,-1.3817 z"
         style="fill:#eb9b23;fill-rule:evenodd"
         id="path1552" />
      <path
         d="m 299.9341,32.9988 c 0.2373,-0.3935 0.8008,-0.6189 1.1831,-0.6308 -1.1608,-0.4555 -0.7765,-1.3157 -0.5736,-1.6842 0.1984,0.5946 1.1497,0.6077 1.7988,1.1183 0.7887,0.6205 0.7887,1.7729 0,2.3934 -0.6491,0.5106 -1.6004,0.5238 -1.7988,1.1183 -0.2029,-0.3685 -0.5872,-1.2287 0.5736,-1.6842 -0.3823,-0.0119 -0.9458,-0.2372 -1.1831,-0.6308 z"
         style="fill:#ebb223;fill-rule:evenodd"
         id="path1554" />
      <path
         d="m 300.5864,31.1185 c 0.4167,0.3759 1.1749,0.4962 1.6184,0.8449 0.6785,0.5343 0.6785,1.5366 0,2.0708 -0.4435,0.3487 -1.2017,0.4691 -1.6184,0.8449 -0.267,-0.8375 0.6518,-1.0753 1.2593,-1.3816 -0.571,-0.0607 -1.2459,-0.0429 -1.6461,-0.4987 0.4002,-0.4558 1.0751,-0.438 1.6461,-0.4987 -0.6075,-0.3063 -1.5263,-0.5441 -1.2593,-1.3816 z"
         style="fill:#f09a1f;fill-rule:evenodd"
         id="path1556" />
      <path
         d="m 302.8581,31.705 c -0.6534,-0.493 -1.3219,-1.0156 -1.4174,-1.7062 h 0.3972 c 0.108,0.5224 0.6912,0.981 1.2619,1.4112 1.7439,1.3141 1.7439,1.8458 0,3.1599 -0.5771,0.435 -1.1672,0.8992 -1.2654,1.429 h -0.3961 c 0.0864,-0.6995 0.7608,-1.2268 1.4198,-1.724 1.5314,-1.1552 1.5314,-1.4147 0,-2.5699 z"
         style="fill:#f09a1f;fill-rule:evenodd"
         id="path1558" />
      <path
         d="m 305.1204,33.2923 c 0.169,0 0.3061,-0.1314 0.3061,-0.2935 0,-0.162 -0.1371,-0.2935 -0.3061,-0.2935 -0.169,0 -0.306,0.1315 -0.306,0.2935 0,0.1621 0.137,0.2935 0.306,0.2935 z"
         style="fill:#f09a1f;fill-rule:evenodd"
         id="path1560" />
      <path
         d="m 300.7665,30.2745 c -0.1631,0 -0.296,-0.1217 -0.3056,-0.2757 h 0.6111 c -0.01,0.154 -0.1425,0.2757 -0.3055,0.2757 z"
         style="fill:#f09a1f;fill-rule:evenodd"
         id="path1562" />
      <path
         d="m 300.4604,35.9989 c 0,-0.1623 0.1368,-0.2935 0.3061,-0.2935 0.1692,0 0.306,0.1312 0.306,0.2935 z"
         style="fill:#eb9b23;fill-rule:evenodd"
         id="path1564" />
    </g>
  </g>
</svg>
